<svg xmlns="http://www.w3.org/2000/svg" width="149.363" height="98.525" viewBox="0 0 149.363 98.525"><path fill="#fff" d="M43.455 40.326v17.736h3.214c5.35 0 8.56-4.28 8.56-8.87 0-4.583-3.21-8.866-8.56-8.866h-3.215zm3.98-8.97c11.822 0 18.654 8.56 18.654 17.837S59.36 67.03 47.434 67.03h-14.58V31.354h14.58zM106.66 52.963C105.542 60.965 99.02 68 87.956 68c-12.383 0-19.572-8.87-19.572-18.81 0-9.888 7.037-18.808 19.472-18.808 11.11 0 17.786 7.084 18.706 15.648H95.448c-.61-3.36-3.16-6.014-7.593-6.014-5.66 0-8.613 4.332-8.613 9.172 0 5.2 3.415 9.178 8.714 9.178 4.077 0 6.78-2.348 7.492-5.404h11.212zM129.28 47.254h20.083v6.982h-3.417c-1.27 8.21-7.696 13.768-17.785 13.768-12.485 0-19.218-8.57-19.218-18.61 0-10.192 6.986-19.01 19.115-19.01 9.99 0 16.92 6.015 17.583 13.354h-11.72c-.358-2.035-2.345-4.275-6.015-4.275-5.453 0-8.156 4.834-8.156 10.033 0 5.303 2.854 9.785 8.664 9.785 4.127 0 6.27-2.286 6.777-5.044h-5.91v-6.982zM0 31.355h22.198v22.2H0zM127.165 0h22.198v22.197h-22.198zM76.423 76.326h22.2v22.2h-22.2z"/></svg>