<?xml version="1.0" encoding="utf-8"?>
<!-- Generator: Adobe Illustrator 16.0.0, SVG Export Plug-In . SVG Version: 6.00 Build 0)  -->
<!DOCTYPE svg PUBLIC "-//W3C//DTD SVG 1.1//EN" "http://www.w3.org/Graphics/SVG/1.1/DTD/svg11.dtd">
<svg version="1.1" id="Layer_1" xmlns="http://www.w3.org/2000/svg" xmlns:xlink="http://www.w3.org/1999/xlink" x="0px" y="0px"
	 width="230px" height="49px" viewBox="0 0 230 49" enable-background="new 0 0 230 49" xml:space="preserve">
<path fill="#001964" d="M73.275,1.806C72.107,0.784,70.53,0.31,68.322,0.31h-4.974v21.343h1.97v-9.81h3.004
	c2.208,0,3.782-0.477,4.953-1.503c1.366-1.192,1.973-2.509,1.973-4.264C75.248,4.318,74.641,3.003,73.275,1.806z M71.793,9.109
	c-0.862,0.617-1.975,0.915-3.407,0.915h-3.068V2.124h3.068c1.43,0,2.545,0.3,3.407,0.914c0.884,0.657,1.393,1.765,1.393,3.037
	C73.186,7.329,72.664,8.466,71.793,9.109z M52.51,1.806c-1.167-1.022-2.74-1.497-4.949-1.497h-4.977v21.343h1.971v-9.81h3.006
	c2.206,0,3.778-0.477,4.949-1.503c1.369-1.193,1.979-2.509,1.979-4.264C54.489,4.319,53.879,3.004,52.51,1.806z M51.03,9.109
	c-0.864,0.617-1.978,0.915-3.408,0.915h-3.067V2.124h3.067c1.428,0,2.543,0.3,3.406,0.914c0.886,0.66,1.396,1.766,1.396,3.037
	C52.424,7.329,51.901,8.464,51.03,9.109z M28.618,0.31h1.972v21.343h-1.972V0.31z M14.652,0.31h1.971v21.343h-1.971V11.142H1.972
	v10.511H0V0.31h1.972v9.013h12.681V0.31z M103.718,11.009C103.718,3.783,98.271,0,92.889,0c-5.377,0-10.824,3.783-10.824,11.009
	c0,7.229,5.446,11.006,10.824,11.006C98.271,22.015,103.718,18.238,103.718,11.009z M84.129,10.978c0-6.312,4.541-9.19,8.76-9.19
	c5.181,0,8.796,3.782,8.796,9.19c0,6.01-4.424,9.157-8.796,9.157C88.537,20.135,84.129,16.988,84.129,10.978z M206.42,0.309
	l2.162,21.343h-1.973L204.862,3.9l-7.561,18.115h-0.368l-7.592-18.141l-1.687,17.778h-1.976l2.165-21.343h2.145l7.111,17.666
	l7.143-17.666H206.42z M125.802,3.247c-0.688-0.689-3.292-2.937-7.791-2.937h-5.951v21.343h5.951c4.505,0,7.103-2.252,7.791-2.942
	c2.152-2.151,3.247-4.752,3.247-7.732C129.049,8,127.954,5.398,125.802,3.247z M124.144,17.651
	c-0.872,0.812-2.851,2.178-6.287,2.178h-3.829V2.124h3.829c3.41,0,5.401,1.384,6.287,2.21c1.31,1.224,2.869,3.37,2.869,6.644
	C127.013,14.28,125.453,16.428,124.144,17.651z M230.088,19.829v1.823h-11.966V0.31h11.747v1.814h-9.775v7.289h9.229v1.823h-9.229
	v8.594H230.088z M149.139,6.105c0-3.521-2.637-5.795-6.715-5.795h-5.037v21.343h1.972v-9.747h2.429l6.214,9.747h2.494l-6.426-9.854
	C147.248,11.236,149.139,9.122,149.139,6.105z M141.51,10.082h-2.151V2.124h2.151c1.781,0,3.027,0.059,4.083,0.855
	c1.025,0.726,1.481,1.694,1.481,3.126c0,1.427-0.46,2.402-1.481,3.157C144.541,10.025,143.295,10.082,141.51,10.082z M167.879,0
	c-5.38,0-10.83,3.783-10.83,11.009c0,7.229,5.45,11.006,10.83,11.006c5.381,0,10.827-3.777,10.827-11.006
	C178.706,3.783,173.26,0,167.879,0z M167.879,20.135c-4.356,0-8.765-3.147-8.765-9.157c0-6.312,4.545-9.19,8.765-9.19
	c5.178,0,8.795,3.782,8.795,9.19C176.674,16.988,172.251,20.135,167.879,20.135z M100.526,34.413h1.893v12.764h-1.893l-7.931-10.173
	c0,0,0.041,1.721,0.041,3.383v6.79h-1.913V34.413h2.033l7.789,10.026c0,0-0.019-1.573-0.019-3.255V34.413z M119.33,34.413h2.175
	l-4.782,7.418v5.346h-1.933v-5.346l-4.782-7.418h2.171l3.566,5.862L119.33,34.413z M138.425,44.198l0.837,1.314
	c-0.858,0.888-2.412,1.886-5.021,1.886c-4.007,0-7.034-2.606-7.034-6.586c0-3.977,3.089-6.584,7.034-6.584
	c2.568,0,4.124,0.998,4.88,1.686l-0.812,1.439c-0.542-0.627-2.075-1.552-3.989-1.552c-2.966,0-5.119,1.979-5.119,4.977
	c0,2.995,2.17,4.975,5.119,4.975C136.132,45.753,137.528,45.104,138.425,44.198z"/>
</svg>
