<?xml version="1.0" encoding="utf-8"?>
<!-- Generator: Adobe Illustrator 18.0.0, SVG Export Plug-In . SVG Version: 6.00 Build 0)  -->
<!DOCTYPE svg PUBLIC "-//W3C//DTD SVG 1.1//EN" "http://www.w3.org/Graphics/SVG/1.1/DTD/svg11.dtd">
<svg version="1.1" id="Layer_1" xmlns="http://www.w3.org/2000/svg" xmlns:xlink="http://www.w3.org/1999/xlink" x="0px" y="0px"
	 viewBox="0 0 85 93.6" enable-background="new 0 0 85 93.6" xml:space="preserve">
<g>
	<path fill="#FFFFFF" d="M34.2,52.6L23.6,63.1h-5.3l15.8-15.8V52.6z M34.2,57.8l-5.3,5.3h5.3V57.8z M49.9,52.6v5.3L65.7,42v-5.3
		L49.9,52.6z M49.9,42v5.3l15.8-15.8v-5.3L49.9,42z M49.9,15.8L65.7,0h-5.3L49.9,10.5V15.8z M65.7,57.8l-5.3,5.3h5.3V57.8z
		 M49.9,63.1h5.3l10.5-10.5v-5.3L49.9,63.1z M18.4,15.8L34.2,0h-5.3L18.4,10.5V15.8z M18.4,21v5.3l15.8-15.8V5.3L18.4,21z M18.4,5.3
		L23.6,0h-5.3V5.3z M49.9,5.3L55.2,0h-5.3V5.3z M18.4,31.5v5.3L34.2,21v-5.3L18.4,31.5z M49.9,21v2.6h-2.6L18.4,52.6v5.3L34.2,42
		v-2.6h2.6l28.9-28.9V5.3L49.9,21z M42,23.7h-5.3L18.4,42v5.3L42,23.7z M42,39.4h5.3L65.7,21v-5.3L42,39.4z M34.2,15.8l7.9,7.9h5.3
		L34.2,10.5V15.8z M49.9,47.3L42,39.4h-5.3l13.1,13.1V47.3z M34.2,42v5.3l15.8,15.8v-5.3L34.2,42z M49.9,10.5V5.3L44.7,0h-5.3
		L49.9,10.5z M34.2,52.6v5.3l5.3,5.3h5.3L34.2,52.6z M49.9,21v-5.3L34.2,0v5.3L49.9,21z"/>
	<g>
		<g>
			<g>
				<path fill="#FFFFFF" d="M27.1,76.8c-0.4-0.4-1-0.6-1.8-0.6h-1.8v7.9h0.7v-3.6h1.1c0.8,0,1.4-0.2,1.8-0.6
					c0.5-0.4,0.7-0.9,0.7-1.6C27.8,77.7,27.6,77.2,27.1,76.8z M26.5,79.5c-0.3,0.2-0.7,0.3-1.3,0.3h-1.1v-2.9h1.1
					c0.5,0,0.9,0.1,1.3,0.3c0.3,0.2,0.5,0.7,0.5,1.1C27,78.8,26.8,79.2,26.5,79.5z"/>
				<path fill="#FFFFFF" d="M19.4,76.8c-0.4-0.4-1-0.6-1.8-0.6h-1.8v7.9h0.7v-3.6h1.1c0.8,0,1.4-0.2,1.8-0.6
					c0.5-0.4,0.7-0.9,0.7-1.6C20.1,77.7,19.9,77.2,19.4,76.8z M18.9,79.5c-0.3,0.2-0.7,0.3-1.3,0.3h-1.1v-2.9h1.1
					c0.5,0,0.9,0.1,1.3,0.3c0.3,0.2,0.5,0.7,0.5,1.1C19.4,78.8,19.2,79.2,18.9,79.5z"/>
				<rect x="10.6" y="76.2" fill="#FFFFFF" width="0.7" height="7.9"/>
				<polygon fill="#FFFFFF" points="5.4,79.6 0.7,79.6 0.7,76.2 0,76.2 0,84.1 0.7,84.1 0.7,80.2 5.4,80.2 5.4,84.1 6.1,84.1 
					6.1,76.2 5.4,76.2 				"/>
				<path fill="#FFFFFF" d="M38.3,80.2c0-2.7-2-4.1-4-4.1c-2,0-4,1.4-4,4.1c0,2.7,2,4.1,4,4.1C36.3,84.2,38.3,82.9,38.3,80.2z
					 M31.1,80.2c0-2.3,1.7-3.4,3.2-3.4c1.9,0,3.2,1.4,3.2,3.4c0,2.2-1.6,3.4-3.2,3.4C32.7,83.6,31.1,82.4,31.1,80.2z"/>
				<polygon fill="#FFFFFF" points="75.5,76.2 72.8,82.8 70.2,76.2 69.4,76.2 68.6,84.1 69.3,84.1 69.9,77.5 72.8,84.2 72.9,84.2 
					75.7,77.6 76.3,84.1 77.1,84.1 76.3,76.2 				"/>
				<path fill="#FFFFFF" d="M46.5,77.3c-0.3-0.3-1.2-1.1-2.9-1.1h-2.2v7.9h2.2c1.7,0,2.6-0.8,2.9-1.1c0.8-0.8,1.2-1.8,1.2-2.9
					C47.7,79.1,47.3,78.1,46.5,77.3z M45.9,82.6c-0.3,0.3-1.1,0.8-2.3,0.8h-1.4v-6.5h1.4c1.3,0,2,0.5,2.3,0.8
					c0.5,0.5,1.1,1.2,1.1,2.5C46.9,81.4,46.3,82.2,45.9,82.6z"/>
				<polygon fill="#FFFFFF" points="81.3,83.4 81.3,80.3 84.7,80.3 84.7,79.6 81.3,79.6 81.3,76.9 84.9,76.9 84.9,76.2 80.6,76.2 
					80.6,84.1 85,84.1 85,83.4 				"/>
				<path fill="#FFFFFF" d="M55.1,78.4c0-1.3-1-2.1-2.5-2.1h-1.9v7.9h0.7v-3.6h0.9l2.3,3.6h0.9l-2.4-3.6
					C54.4,80.3,55.1,79.5,55.1,78.4z M52.3,79.8h-0.8v-2.9h0.8c0.7,0,1.1,0,1.5,0.3c0.4,0.3,0.5,0.6,0.5,1.2c0,0.5-0.2,0.9-0.5,1.2
					C53.4,79.8,52.9,79.8,52.3,79.8z"/>
				<path fill="#FFFFFF" d="M62,76.1c-2,0-4,1.4-4,4.1c0,2.7,2,4.1,4,4.1c2,0,4-1.4,4-4.1C66,77.5,64,76.1,62,76.1z M62,83.6
					c-1.6,0-3.2-1.2-3.2-3.4c0-2.3,1.7-3.4,3.2-3.4c1.9,0,3.2,1.4,3.2,3.4C65.3,82.4,63.6,83.6,62,83.6z"/>
			</g>
		</g>
		<g>
			<path fill="#FFFFFF" d="M37.1,91.3c0,0.6,0,1.2,0,1.2l-2.9-3.7h-0.8v4.7h0.7V91c0-0.6,0-1.3,0-1.3l2.9,3.8h0.7v-4.7h-0.7V91.3z"
				/>
			<polygon fill="#FFFFFF" points="42.8,91 41.4,88.8 40.6,88.8 42.4,91.6 42.4,93.5 43.1,93.5 43.1,91.6 44.9,88.8 44.1,88.8 			
				"/>
			<path fill="#FFFFFF" d="M49.6,93c-1.1,0-1.9-0.7-1.9-1.8c0-1.1,0.8-1.8,1.9-1.8c0.7,0,1.3,0.3,1.5,0.6l0.3-0.5
				c-0.3-0.3-0.9-0.6-1.8-0.6c-1.5,0-2.6,1-2.6,2.4c0,1.5,1.1,2.4,2.6,2.4c1,0,1.5-0.4,1.9-0.7l-0.3-0.5C50.8,92.8,50.3,93,49.6,93z
				"/>
		</g>
	</g>
</g>
</svg>
