<svg xmlns="http://www.w3.org/2000/svg" xmlns:xlink="http://www.w3.org/1999/xlink" version="1.0" id="Layer_1" x="0px" y="0px" width="50px" height="50px" viewBox="0 0 50 50" enable-background="new 0 0 50 50" xml:space="preserve">
<g>
	<g>
		<g>
			<path fill="#000000" d="M34.5,28.799c-0.324-0.848-0.791-1.6-1.391-2.252c-0.6-0.668-1.34-1.19-2.197-1.576     c-0.861-0.389-1.795-0.583-2.826-0.583c-0.227,0.002-0.406,0.036-0.807,0.082l-0.977-4.215c4.002-3.544,5.07-7.526,5.066-10.724     c-0.01-3.734-1.002-6.303-2.537-7.233c-0.414-0.243-0.936-0.353-1.438-0.354c-0.459,0.001-0.9,0.091-1.238,0.311     c-0.67,0.447-1.26,1.094-1.762,1.936C23.881,5.03,23.492,6,23.224,7.117c-0.281,1.114-0.428,2.311-0.439,3.586     c0.064,1.936,0.379,3.829,0.947,5.687c-1.283,1.151-2.308,2.106-3.098,2.853c-0.813,0.793-1.594,1.675-2.349,2.638     c-0.763,0.973-1.192,2.017-1.673,3.12C16.127,26.101,16,27.275,16,28.492v0.014c0,1.316,0.113,2.587,0.652,3.794     c0.547,1.206,1.156,2.394,2.147,3.356c1.003,0.964,2.107,1.595,3.396,2.124c1.309,0.54,2.733,0.801,4.195,0.801     c0.781,0,1.518-0.075,2.242-0.22c0.111,0.466,0.268,1.08,0.479,1.835c0.248,0.903,0.429,1.635,0.544,2.175     c0.115,0.544,0.176,1.085,0.178,1.623c0,0.806-0.105,1.438-0.305,1.86l-0.011,0.019l-0.006,0.02     c-0.1,0.354-0.35,0.712-0.76,1.063c-0.406,0.35-0.885,0.624-1.477,0.838c-0.578,0.199-1.152,0.31-1.709,0.31     c-0.843-0.003-1.469-0.192-1.92-0.551c0.73-0.056,1.369-0.319,1.875-0.782c0.575-0.517,0.875-1.184,0.874-1.936     c0-0.563-0.158-1.089-0.444-1.556c-0.302-0.473-0.704-0.842-1.184-1.115l-0.002-0.003l-0.006,0.121     C24.267,42.019,23.735,42,23.179,42h-0.006h-0.011C22.511,42,22,42.088,21,42.434v-0.062c0,0.326-0.563,0.727-0.844,1.251     C19.877,44.145,20,44.664,20,45.246v0.014v0.016c0,1.311,0.585,2.373,1.717,3.127c1.113,0.735,2.375,1.208,3.875,1.208     c1.059-0.001,2.108-0.21,3.004-0.626c0.902-0.413,1.775-1.075,2.326-1.849c0.412-0.605,0.799-1.8,0.803-3.107     c0-0.455-0.055-0.923-0.176-1.38c-0.123-0.586-0.948-3.806-1.169-4.784c1.561-0.552,2.544-1.403,3.341-2.514     c0.844-1.171,1.269-2.487,1.267-3.911C34.988,30.52,34.811,29.639,34.5,28.799z M25.009,9.982     c0.742-3.188,2.403-3.716,3.051-3.723c0.369,0.002,0.627,0.168,0.822,0.396c0.195,0.224,0.303,0.52,0.32,0.668l0.002,0.018     l0.004,0.016c0.059,0.227,0.084,0.499,0.084,0.774c0,0.639-0.137,1.342-0.43,2.084c-0.293,0.763-0.691,1.514-1.191,2.257     c-0.236,0.353-0.811,1.063-1.369,1.702c-0.279,0.319-0.559,0.623-0.792,0.858c-0.065,0.068-0.129,0.131-0.188,0.187     c-0.173-0.877-0.414-2.686-0.413-4.035C24.91,10.702,24.941,10.275,25.009,9.982z M26.623,37.019     c-2.417,0.007-5.004-0.95-6.083-1.917c-0.734-0.664-1.311-1.198-1.648-1.941c-0.354-0.76-0.542-1.55-0.568-2.363     c0.054-1.841,0.688-3.537,1.928-5.116c1.186-1.521,2.699-2.974,4.555-4.376l0.77,3.516c-1.184,0.456-2.349,1.197-3.119,2.211     C21.652,28.094,21,29.269,21,30.521v0.015c0,1.174,0.631,2.223,1.43,3.123c0.797,0.892,1.927,1.493,3.171,1.771l0.103,0.014     l0.078-0.013c0.126-0.026,0.236-0.057,0.326-0.104c0.08-0.043,0.209-0.134,0.215-0.313c0.004-0.143-0.058-0.298-0.171-0.396     c-0.105-0.096-0.235-0.148-0.38-0.18c-0.693-0.274-1.208-0.688-1.554-1.258c-0.365-0.591-0.541-1.132-0.54-1.579     c0.001-0.744,0.292-1.429,0.925-2.079c0.565-0.571,1.16-0.959,1.805-1.17l1.916,8.494C27.781,36.965,27.207,37.019,26.623,37.019     z M33,32.172c0,1.226-0.25,2.24-0.727,3.051c-0.477,0.814-1.266,1.405-2.318,1.779l-0.293,0.1l-2.12-8.959L27.461,28h0.33     c0.979,0,1.635,0.029,2.385,0.412c0.771,0.393,1.389,0.85,1.842,1.534c0.471,0.678,0.801,1.396,0.924,2.233L33,32.153V32.172z"/>
		</g>
	</g>
</g>
</svg>